<?xml version="1.0" encoding="UTF-8"?>
<svg xmlns="http://www.w3.org/2000/svg" viewBox="0 0 814.56 182.38">
  <defs>
    <style>
      .cls-1 {
        letter-spacing: .02em;
      }

      .cls-2 {
        fill: #3b4e6b;
      }

      .cls-2, .cls-3 {
        stroke-width: 0px;
      }

      .cls-3 {
        fill: #a7b5c4;
      }

      .cls-4 {
        fill: #0a1a45;
        font-family: Inter-ExtraBold, Inter;
        font-size: 122.29px;
        font-weight: 700;
      }

      .cls-5 {
        mix-blend-mode: exclusion;
      }

      .cls-6 {
        isolation: isolate;
      }
    </style>
  </defs>
  <g class="cls-6">
    <g id="Layer_1" data-name="Layer 1">
      <text class="cls-4" transform="translate(129.94 143.4)"><tspan x="0" y="0">BubbleSo</tspan><tspan class="cls-1" x="580.4" y="0">r</tspan><tspan x="634.95" y="0">t</tspan></text>
      <g id="u899k5.tif" class="cls-5">
        <path class="cls-2" d="M133.4,14.11c.15-.03.3-.06.46-.09-.15.03-.3.06-.46.09Z"/>
      </g>
      <g id="UkmfcP.tif">
        <g>
          <path class="cls-2" d="M117.3,74.5c.45-.56.86-1.15,1.36-1.67,5.33-5.57,8.18-12.22,8.44-19.91.22-6.32-1.4-12.15-4.92-17.44-5.76-8.67-13.97-13.11-24.23-13.54-8.74-.37-16.25,2.81-22.42,9.05-.83.84-1.69,1.66-2.54,2.49-4.6-.47-9.2-1.32-13.8-1.35-13.12-.07-24.92,4.16-35.45,11.92-5.63,4.15-10.28,9.23-14.18,15.03-2.84,4.24-5.11,8.76-6.71,13.57-1.03,3.08-1.63,6.32-2.32,9.51-1.07,4.99-1.2,10.07-.7,15.12,1.09,10.88,4.66,20.88,11.08,29.81,7.39,10.28,17.05,17.6,28.92,21.86,6.11,2.2,12.51,3.31,19.04,3.33,15.45.05,29.06-4.94,40.72-15.08,6.61-5.75,11.47-12.78,15.1-20.76,2.74-6.01,4.33-12.28,4.93-18.78.73-7.85.04-15.61-2.35-23.17Z"/>
          <path class="cls-2" d="M186.24,17.99c-.07-.12-.14-.24-.2-.35.07.12.14.24.2.35Z"/>
          <path class="cls-2" d="M117.3,74.5c2.39,7.56,3.08,15.32,2.35,23.17-.61,6.51-2.2,12.77-4.93,18.78-3.63,7.98-8.49,15.01-15.1,20.76-11.66,10.14-25.27,15.13-40.72,15.08-6.53-.02-12.93-1.13-19.04-3.33-11.87-4.27-21.53-11.59-28.92-21.86C4.5,118.17.94,108.16-.16,97.29c-.51-5.04-.37-10.13.7-15.12.68-3.19,1.29-6.42,2.32-9.51,1.61-4.81,3.87-9.34,6.71-13.57,3.9-5.81,8.55-10.89,14.18-15.03,10.53-7.76,22.33-11.99,35.45-11.92,4.6.02,9.2.87,13.8,1.35-.36.67-.67,1.37-1.08,2.01-3.04,4.64-4.69,9.74-4.88,15.27-.29,8.11,2.35,15.24,7.73,21.25,4.79,5.36,10.79,8.64,18,9.62,7.11.97,13.75-.23,19.85-4.08,1.58-.99,3.12-2.03,4.68-3.05ZM45.46,138.56c.62.17.9.25,1.18.32,1.78.47,2.95-.07,3.33-1.52.37-1.45-.39-2.39-2.17-2.97-1.91-.63-3.8-1.31-5.64-2.1-10.07-4.31-17.35-11.62-22.05-21.38-4.6-9.55-5.37-19.6-2.79-29.89.42-1.66-.14-2.82-1.55-3.2-1.4-.37-2.59.32-2.9,2.02-.6,3.34-1.29,6.69-1.5,10.06-.61,9.72,1.85,18.74,6.76,27.1,2.95,5.01,6.76,9.29,11.26,12.97,4.89,3.99,10.43,6.76,16.07,8.59Z"/>
          <path class="cls-3" d="M117.3,74.5c-1.56,1.02-3.11,2.06-4.68,3.05-6.1,3.85-12.74,5.05-19.85,4.08-7.21-.98-13.21-4.27-18-9.62-5.38-6.01-8.02-13.14-7.73-21.25.2-5.54,1.84-10.63,4.88-15.27.42-.63.73-1.34,1.08-2.01.85-.83,1.7-1.65,2.53-2.49,6.17-6.24,13.68-9.41,22.42-9.05,10.26.43,18.46,4.87,24.23,13.54,3.52,5.29,5.14,11.12,4.92,17.44-.27,7.7-3.11,14.34-8.44,19.91-.49.52-.91,1.11-1.36,1.67Z"/>
          <path class="cls-3" d="M45.46,138.56c-5.64-1.84-11.18-4.6-16.07-8.59-4.5-3.68-8.32-7.96-11.26-12.97-4.92-8.36-7.37-17.39-6.76-27.1.21-3.37.89-6.72,1.5-10.06.31-1.7,1.49-2.39,2.9-2.02,1.41.37,1.97,1.53,1.55,3.2-2.58,10.29-1.81,20.34,2.79,29.89,4.7,9.76,11.97,17.07,22.05,21.38,1.84.79,3.74,1.48,5.64,2.1,1.78.58,2.54,1.53,2.17,2.97-.38,1.45-1.55,1.99-3.33,1.52-.28-.07-.56-.15-1.18-.32Z"/>
        </g>
      </g>
    </g>
  </g>
</svg>