<?xml version="1.0" encoding="UTF-8"?>
<svg id="Layer_1" data-name="Layer 1" xmlns="http://www.w3.org/2000/svg" viewBox="0 0 956.21 146.38">
  <defs>
    <style>
      .cls-1 {
        letter-spacing: .02em;
      }

      .cls-2 {
        letter-spacing: .02em;
      }

      .cls-3 {
        letter-spacing: 0em;
      }

      .cls-4 {
        fill: #3b4e6b;
      }

      .cls-4, .cls-5 {
        stroke-width: 0px;
      }

      .cls-5 {
        fill: #a7b5c4;
      }

      .cls-6 {
        fill: #0a1a45;
        font-family: Inter-ExtraBold, Inter;
        font-size: 122.29px;
        font-weight: 700;
      }

      .cls-7 {
        letter-spacing: 0em;
      }
    </style>
  </defs>
  <text class="cls-6" transform="translate(147.49 123.89)"><tspan x="0" y="0">Inse</tspan><tspan class="cls-2" x="256.57" y="0">r</tspan><tspan class="cls-3" x="311.11" y="0">tionSo</tspan><tspan class="cls-1" x="704.12" y="0">r</tspan><tspan class="cls-7" x="758.67" y="0">t</tspan></text>
  <g id="_4aYr39.tif" data-name="4aYr39.tif">
    <g>
      <path class="cls-4" d="M152.62,6.49c-.12-.12-.24-.24-.36-.36.12.12.24.24.36.36Z"/>
      <path class="cls-4" d="M133.4,74.95c0,13.34,0,26.68,0,40.02,0,10.89-7.68,18.52-18.6,18.52-23.19,0-46.38,0-69.57,0-10.92,0-18.58-7.65-18.59-18.54,0-2.73-.03-5.45,0-8.18.06-4.8,4.17-8.83,8.92-8.8,4.78.03,8.79,4.03,8.86,8.86.02,1.3,0,2.61,0,3.91.03,3.14,1.82,4.95,4.98,4.96,9.07.01,18.15,0,27.22,0,11.21,0,22.42,0,33.63,0,3.62,0,5.34-1.71,5.34-5.31,0-23.72,0-47.43,0-71.15,0-3.64-1.69-5.36-5.28-5.37-20.22,0-40.45,0-60.67,0-3.49,0-5.18,1.74-5.23,5.25-.03,1.89.05,3.82-.32,5.65-.82,4.12-4.98,7.19-9.21,6.77-4.94-.49-8.33-4.22-8.23-9.05.09-4.48-.1-9.07.78-13.42,1.48-7.35,8.8-12.94,16.32-12.96,24.14-.06,48.28-.07,72.42,0,9.21.03,17.14,7.99,17.19,17.21.08,13.87.02,27.75.02,41.62h0Z"/>
      <path class="cls-5" d="M72.94,83.69c-13.76,0-27.52,0-41.28,0-4.57,0-9.13.02-13.7,0-5.2-.03-9.13-3.9-9.12-8.91,0-5.01,3.95-8.86,9.17-8.86,17.68-.02,35.35,0,53.03,0h2.43c-2.18-2.18-4.07-4.07-5.96-5.96-1.7-1.7-2.76-3.68-2.83-6.13-.1-3.82,1.9-7.08,5.24-8.55,3.4-1.5,7.16-.87,9.88,1.79,4.03,3.94,7.98,7.95,11.97,11.93,3.06,3.06,6.14,6.11,9.18,9.19,3.97,4.02,3.98,9.26,0,13.26-6.9,6.94-13.82,13.85-20.76,20.75-3.81,3.79-9.31,3.91-12.88.34-3.6-3.6-3.53-9.08.24-12.88,1.86-1.88,3.82-3.67,5.73-5.5-.11-.15-.21-.3-.32-.45Z"/>
    </g>
  </g>
</svg>