<?xml version="1.0" encoding="UTF-8"?>
<svg xmlns="http://www.w3.org/2000/svg" viewBox="0 0 730.55 190.87">
  <defs>
    <style>
      .cls-1 {
        letter-spacing: .02em;
      }

      .cls-2 {
        fill: #3b4e6b;
        stroke-width: 0px;
      }

      .cls-3 {
        fill: #0a1a45;
        font-family: Inter-ExtraBold, Inter;
        font-size: 122.29px;
        font-weight: 700;
      }

      .cls-4 {
        letter-spacing: 0em;
      }

      .cls-5 {
        mix-blend-mode: exclusion;
      }

      .cls-6 {
        isolation: isolate;
      }
    </style>
  </defs>
  <g class="cls-6">
    <g id="Layer_1" data-name="Layer 1">
      <text class="cls-3" transform="translate(112.86 140.19)"><tspan x="0" y="0">QuickSo</tspan><tspan class="cls-1" x="511.18" y="0">r</tspan><tspan class="cls-4" x="565.72" y="0">t</tspan></text>
      <g id="u899k5.tif" class="cls-5">
        <g>
          <path class="cls-2" d="M193.31,63.88c-.05-.15-.1-.29-.15-.44.05.15.1.29.15.44Z"/>
          <g class="cls-5">
            <path class="cls-2" d="M42.85,115.14c-.76-.44-1.35-.79-1.93-1.13-10.51-6.13-21.01-12.26-31.52-18.4-4.02-2.35-4.46-6.67-.99-8.91,11.79-7.6,23.55-15.25,35.34-22.85,8.95-5.77,17.95-11.5,26.91-17.26,6.56-4.22,13.07-8.49,19.65-12.68,1.58-1.01,3.29-1.89,5.53-.75,2.32,1.17,4.25,2.63,3.97,5.25-.13,1.19-.63,2.36-1.23,3.39-8.41,14.49-16.87,28.95-25.32,43.42l-1.03,1.77,1.83,1.07c10.2,5.96,20.42,11.9,30.6,17.89,1.03.6,2.04,1.33,2.86,2.17,2.37,2.44,1.59,5.54-1.03,7.33-6.11,4.19-12.46,8.1-18.7,12.12-8.39,5.4-16.77,10.81-25.15,16.22-6.2,4-12.4,8-18.61,11.99-6.56,4.21-13.13,8.41-19.69,12.62-2.21,1.42-5.36,1.33-7.13-.33-2.23-2.08-2.43-4.94-1.32-6.81,8.69-14.74,17.29-29.54,25.91-44.31.31-.53.61-1.05,1.06-1.81Z"/>
          </g>
        </g>
      </g>
    </g>
  </g>
</svg>