<?xml version="1.0" encoding="UTF-8"?>
<svg id="Layer_1" data-name="Layer 1" xmlns="http://www.w3.org/2000/svg" viewBox="0 0 953.44 152.45">
  <defs>
    <style>
      .cls-1 {
        letter-spacing: .02em;
      }

      .cls-2 {
        fill: #3b4e6b;
      }

      .cls-2, .cls-3 {
        stroke-width: 0px;
      }

      .cls-3 {
        fill: #a1b4c5;
      }

      .cls-4 {
        fill: #0a1a45;
        font-family: Inter-ExtraBold, Inter;
        font-size: 122.29px;
        font-weight: 700;
      }
    </style>
  </defs>
  <text class="cls-4" transform="translate(125.55 144.86)"><tspan x="0" y="0">SelectionSo</tspan><tspan class="cls-1" x="728.96" y="0">r</tspan><tspan x="783.51" y="0">t</tspan></text>
  <g id="Lw18Bp.tif">
    <g>
      <path class="cls-2" d="M106.52,97.57c-.01,12.64-3.66,24.09-11.25,34.25-.37.5-.59,1.23-.62,1.87-.07,2.07-.01,4.15-.03,6.22-.02,2.82-1.78,4.58-4.57,4.58-15.9,0-31.81-.01-47.72-.02-1.85.01-3.69.04-5.53.02-2.43-.03-4.14-1.76-4.17-4.21-.02-2.17.05-4.34-.04-6.5-.02-.62-.31-1.36-.73-1.8-7.51-7.79-12.18-17.05-13.79-27.7-.93-6.14-1.09-12.39-.35-18.57.51-4.19,4.49-7.36,8.73-7.39,1.66,0,3.33-.08,4.98.03,1.26.08,1.52-.38,1.52-1.57-.04-13.92-.05-27.85,0-41.77.01-2.28.05-4.64.62-6.82,1-3.82,4.79-6.35,8.76-6.31,4.96-.04,9.09,4.15,9.1,9.31.03,9.99.01,19.98.01,29.96,0,.74.02,1.48.03,2.21-.1.28-.2.56-.3.84.12.03.24.07.36.1.06-.32.12-.64.18-.97.76-3.92,4.37-6.69,8.36-6.93,4.98-.3,8.8,3.34,9.48,7.33.28,1.65.05,3.4.17,5.16,1.98-4.88,5.45-7.75,10.71-6.77,6.21,1.16,8.19,5.74,7.52,11.8.11-.03.23-.07.35-.1.58-.91,1.07-1.87,1.73-2.7,2.41-3.02,5.56-4.2,9.31-3.3,3.79.91,6.15,3.36,6.92,7.22.17.85.25,1.73.25,2.6.02,6.64.02,13.28.01,19.93Z"/>
      <path class="cls-3" d="M10.65,36.79c.69,0,1.39.07,2.07-.01,2.02-.26,3.8.99,4.09,3.53.21,1.86-.62,3.75-2.83,4.34-2.72.72-5.51,1.04-8.07-.62-1.3-.84-2.03-2.89-1.64-4.21.52-1.78,2.21-3.34,3.9-3.05.81.14,1.65.02,2.48.02Z"/>
      <path class="cls-3" d="M14.09,17.28c0-3.47,3.13-5.66,5.88-4.16,2.25,1.23,4.28,3.04,5.25,5.6.64,1.68.07,3.37-1.29,4.44-1.34,1.05-3.3,1.36-4.59.27-1.77-1.5-3.29-3.29-4.85-5.02-.33-.36-.36-1-.41-1.13Z"/>
      <path class="cls-3" d="M58.75,19.73c.22-.63.3-1.39.7-1.87,1.61-1.9,3.05-4.05,5.51-4.98,1.66-.63,3.64.14,4.51,1.62,1.08,1.81.87,3.89-.5,5.21-.99.96-1.97,1.93-2.93,2.92-1.33,1.38-3.01,1.79-4.72,1.1-1.47-.6-2.43-2.16-2.57-4Z"/>
      <path class="cls-3" d="M73.97,36.73c1.23.07,2.54-.1,3.68.26,1.35.43,2.18,1.57,2.34,3.09.2,1.81-.29,3.36-1.98,4.16-2.66,1.27-5.46,1.35-8.18.17-1.83-.79-2.76-2.82-2.26-4.68.42-1.56,1.85-3.24,4.05-2.96.77.1,1.56.02,2.35.02,0-.02,0-.04,0-.06Z"/>
      <path class="cls-3" d="M42.33,15.41c-2.39.05-4.35-1.87-4.43-4.39-.04-1.28-.02-2.57,0-3.85.03-2.5,1.89-4.34,4.42-4.4,0,4.21,0,8.43.01,12.64Z"/>
      <path class="cls-3" d="M42.33,15.41c0-4.21,0-8.43-.01-12.64,2.19-.03,4.27,2.05,3.92,4.3-.21,1.35-.16,2.76-.01,4.12.22,2.07-1.67,4.28-3.9,4.21Z"/>
      <path class="cls-2" d="M51.71,63.33c-.06.32-.12.64-.17.97-.12-.03-.25-.07-.37-.1.1-.28.2-.56.31-.84.08,0,.16-.01.24-.03Z"/>
    </g>
  </g>
</svg>